<svg xmlns="http://www.w3.org/2000/svg" viewBox="0 0 64 64" role="img" aria-labelledby="waTitle waDesc">
  <title id="waTitle">WhatsApp Icon</title>
  <desc id="waDesc">WhatsApp chat icon.</desc>
  <circle cx="32" cy="32" r="30" fill="#25d366" />
  <path d="M21.5 23.5c1.3-2.4 3.2-3.9 5.7-4.3 3.9-.6 7.5 1.5 9 4.5 1.4 3 1 6.5-.9 9.2-.1.2-.3.4-.2.7l1.1 5.1c.1.4 0 .8-.3 1-2 1.5-4.2 2.6-6.6 3.2-.8.2-1.6-.4-1.8-1.2l-.6-2.4c-.1-.5-.4-.9-.8-1.2-.6-.4-1.3-.7-2-.9-1.4-.4-2.7-.9-3.9-1.7-1.2-.8-2.2-1.8-3-3 .4-.7.9-1.4 1.3-2 1-1.7 1.5-3.5 1.5-5.4 0-1.3-.2-2.5-.6-3.7z" fill="#fff"/>
</svg>